<svg xmlns="http://www.w3.org/2000/svg" width="20" height="17" viewBox="0 0 20 17">
    <g fill="none" fill-rule="evenodd">
        <g>
            <g fill="#FFF" fill-rule="nonzero">
                <path d="M11.268 6.732c.976.977.976 2.56 0 3.536-.977.976-2.56.976-3.536 0-.976-.977-.976-2.56 0-3.536.977-.976 2.56-.976 3.536 0" transform="translate(-1494 -1079) translate(1494 1079)"/>
                <path d="M17.5 2.429h-1.727L14.522 0H5.477l-1.25 2.43-1.725.003C1.127 2.435.008 3.523.007 4.86L0 14.57C0 15.91 1.121 17 2.5 17h15c1.379 0 2.5-1.09 2.5-2.429V4.857c0-1.34-1.121-2.428-2.5-2.428zM10 13.964c-2.757 0-5-2.179-5-4.857C5 6.43 7.243 4.25 10 4.25s5 2.179 5 4.857c0 2.678-2.243 4.857-5 4.857z" transform="translate(-1494 -1079) translate(1494 1079)"/>
            </g>
            <path stroke="red" d="M1445.5 1056.5H1685.5V1163.5H1445.5z" transform="translate(-1494 -1079)"/>
        </g>
    </g>
</svg>
