<svg xmlns="http://www.w3.org/2000/svg" width="35" height="35" viewBox="0 0 35 35">
    <g fill="none" fill-rule="evenodd">
        <g fill="#DBDEE7" fill-rule="nonzero">
            <g>
                <g>
                    <path d="M7.423 2L.809 8.614c-.033.033-.057.075-.068.12l-.733 2.943c-.022.088.004.182.068.247.05.049.116.076.184.076.021 0 .042-.003.063-.008l2.942-.733c.046-.011.088-.035.121-.069L10 4.577 7.423 2zM11.605 1.149l-.763-.766c-.51-.511-1.398-.51-1.908 0L8 1.321 10.67 4l.935-.937c.255-.256.395-.596.395-.957 0-.362-.14-.702-.395-.957z" transform="translate(-587 -191) translate(587 191)"/>
                </g>
                <g>
                    <path d="M14 8.019L17.981 12l.019-.209C18 9.7 16.3 8 14.209 8L14 8.019z" transform="translate(-587 -191) translate(587 191) translate(8 12)"/>
                    <path d="M13.051 5.061c3.498 0 6.338 2.743 6.338 6.123 0 .79-.165 1.543-.45 2.234L22.646 17c1.914-1.543 3.422-3.539 4.354-5.816C24.8 5.808 19.395 2 13.051 2c-1.775 0-3.473.306-5.051.857l2.738 2.639c.716-.27 1.495-.435 2.313-.435zM1.25 1.543l2.85 2.76.569.551C2.606 6.416.975 8.492 0 10.894c2.163 5.315 7.5 9.08 13.75 9.08 1.937 0 3.787-.363 5.481-1.023l.531.514L23.406 23 25 21.463 2.844 0 1.25 1.543zm6.912 6.689l1.932 1.87c-.057.26-.094.52-.094.793 0 2.003 1.681 3.631 3.75 3.631.281 0 .55-.036.812-.09l1.932 1.87c-.832.4-1.756.641-2.744.641-3.45 0-6.25-2.711-6.25-6.052 0-.957.25-1.852.662-2.663z" transform="translate(-587 -191) translate(587 191) translate(8 12)"/>
                </g>
            </g>
        </g>
    </g>
</svg>
