<svg xmlns="http://www.w3.org/2000/svg" width="78" height="77" viewBox="0 0 78 77">
    <g fill="none" fill-rule="evenodd">
        <g>
            <g transform="translate(-276 -102) translate(276 102)">
                <ellipse cx="38.584" cy="38.093" fill="#F4F4F4" rx="38.584" ry="38.093"/>
                <g fill-rule="nonzero">
                    <g>
                        <path fill="#979B9D" d="M32.771 0h-9.643c-1.292 2.05-2.71 4.019-4.244 5.894C17.35 4.019 15.932 2.05 14.64 0H4.997L.434 12h36.9L32.77 0z" transform="translate(20 21) translate(0 21)"/>
                        <path fill="#C2C2C2" d="M31.976 2.441L14.969 8.207 8.341 0h5.91c1.193 1.8 2.502 3.527 3.92 5.172C19.588 3.527 20.897 1.8 22.09 0h8.907l.978 2.441zM13.902 12L28.732 6.462 32.439 12z" transform="translate(20 21) translate(0 21)"/>
                    </g>
                    <path fill="#4D89A5" d="M18.072 0C13.062 0 9 3.815 9 8.521c-.053 8.13 9.072 18.214 9.072 18.214s9.124-10.083 9.07-18.214c0-4.706-4.06-8.52-9.07-8.521zm0 12.137c-2.126 0-3.85-1.619-3.85-3.616 0-1.996 1.724-3.615 3.85-3.615 2.125 0 3.848 1.619 3.848 3.615 0 .96-.405 1.88-1.126 2.558-.722.678-1.702 1.058-2.722 1.058z" transform="translate(20 21)"/>
                </g>
            </g>
        </g>
    </g>
</svg>
