<svg xmlns="http://www.w3.org/2000/svg" width="14" height="13" viewBox="0 0 14 13">
    <g fill="none" fill-rule="evenodd">
        <g fill="#9DA4AD">
            <g>
                <path fill="black" d="M13.154 3H4.846C4.379 3 4 2.645 4 2.207V.793C4 .355 4.379 0 4.846 0h8.308c.467 0 .846.355.846.793v1.414c0 .438-.379.793-.846.793M13.154 8H4.846C4.379 8 4 7.645 4 7.207V5.793C4 5.355 4.379 5 4.846 5h8.308c.467 0 .846.355.846.793v1.414c0 .438-.379.793-.846.793M2.305 3H.695C.312 3 0 2.69 0 2.307V.693C0 .31.312 0 .695 0h1.61C2.689 0 3 .31 3 .693v1.614C3 2.69 2.689 3 2.305 3M2.305 8H.695C.312 8 0 7.69 0 7.307V5.693C0 5.31.312 5 .695 5h1.61c.384 0 .695.31.695.693v1.614C3 7.69 2.689 8 2.305 8M13.154 13H4.846C4.379 13 4 12.645 4 12.207v-1.414c0-.438.379-.793.846-.793h8.308c.467 0 .846.355.846.793v1.414c0 .438-.379.793-.846.793M2.305 13H.695C.312 13 0 12.69 0 12.307v-1.614C0 10.31.312 10 .695 10h1.61c.384 0 .695.31.695.693v1.614c0 .383-.311.693-.695.693" transform="translate(-3124 -1221) translate(3124 1221)"/>
            </g>
        </g>
    </g>
</svg>
