<svg xmlns="http://www.w3.org/2000/svg" width="64" height="64" viewBox="0 0 64 64">
    <g fill="none" fill-rule="evenodd">
        <g fill="#D1D5D9" fill-rule="nonzero">
            <g>
                <path d="M63.796 28.497c-.138-.32-.335-.612-.586-.856l-8.099-7.873c-1.056-1.024-2.762-1.024-3.818 0-1.056 1.026-1.056 2.688 0 3.712l3.492 3.394H39.7c-1.493 0-2.7 1.176-2.7 2.625 0 1.45 1.207 2.625 2.7 2.625h15.084l-3.491 3.395c-1.056 1.026-1.056 2.688 0 3.712.526.514 1.218.769 1.909.769.691 0 1.383-.255 1.91-.77l8.098-7.872c.25-.242.448-.533.586-.856.272-.64.272-1.365 0-2.005z" transform="translate(-1270 -102) translate(1270 102)"/>
                <path d="M45.333 37.333c-1.474 0-2.666 1.195-2.666 2.667v13.333H32V10.667c0-1.176-.773-2.216-1.901-2.555l-9.262-2.779h21.83v13.334c0 1.472 1.192 2.666 2.666 2.666 1.475 0 2.667-1.194 2.667-2.666v-16C48 1.195 46.808 0 45.333 0H2.667c-.096 0-.182.04-.275.05-.125.014-.24.035-.36.065-.28.072-.533.181-.77.33-.06.038-.131.04-.187.083-.022.016-.03.045-.051.061-.29.23-.533.51-.71.843-.037.072-.045.15-.074.224-.085.203-.179.4-.21.624-.014.08.01.155.007.232-.002.053-.037.101-.037.155V56c0 1.272.899 2.365 2.144 2.613l26.667 5.334c.173.037.35.053.522.053.611 0 1.211-.21 1.691-.605.616-.507.976-1.262.976-2.062v-2.666h13.333C46.808 58.667 48 57.472 48 56V40c0-1.472-1.192-2.667-2.667-2.667z" transform="translate(-1270 -102) translate(1270 102)"/>
            </g>
        </g>
    </g>
</svg>
