<svg xmlns="http://www.w3.org/2000/svg" width="12" height="11" viewBox="0 0 12 11">
    <g fill-rule="evenodd">
        <g>
            <path d="M1884.968 505.574c-.16-1.133-.987-2.124-2.017-2.417-1.313-.372-2.775.023-3.755 2.097-.06.128-.224.129-.285 0-.993-2.084-2.523-2.506-3.845-2.132-1.04.294-1.874 1.288-2.034 2.425-.117.822.096 1.666.454 2.403 1.176 2.418 3.51 4.29 5.44 6.012.058.051.138.05.195 0 1.914-1.717 4.231-3.582 5.397-5.993.354-.734.566-1.576.45-2.395" transform="translate(-1873 -503)"/>
        </g>
    </g>
</svg>
