<svg xmlns="http://www.w3.org/2000/svg" xmlns:xlink="http://www.w3.org/1999/xlink" width="43" height="43" viewBox="0 0 43 43">
    <defs>
        <path id="oia0mq7x9a" d="M20.044 15.718L42.555 15.718 42.555 22.88 20.044 22.88z"/>
        <path id="r4p23daobb" d="M0.325 0.838L7.461 0.838 7.461 8 0.325 8z"/>
        <path id="audtnvm06c" d="M0.044 0.779L22.555 0.779 22.555 7.94 0.044 7.94z"/>
        <path id="v40r89m1fd" d="M0.044 0.838L22.555 0.838 22.555 8 0.044 8z"/>
    </defs>
    <g fill="none" fill-rule="evenodd">
        <g>
            <g>
                <g transform="translate(-1678 -275) translate(1678 275)">
                    <g fill="#939AA3">
                        <path d="M40.65 22.88H21.949c-1.052 0-1.904-.847-1.904-1.893v-3.376c0-1.046.852-1.893 1.904-1.893h18.703c1.052 0 1.904.847 1.904 1.893v3.376c0 1.046-.852 1.893-1.904 1.893M15.378 23h-3.756C10.728 23 10 22.276 10 21.383v-3.766c0-.894.728-1.617 1.622-1.617h3.756c.896 0 1.622.723 1.622 1.617v3.766c0 .893-.726 1.617-1.622 1.617M15.378 33h-3.756C10.728 33 10 32.276 10 31.383v-3.766c0-.894.728-1.617 1.622-1.617h3.756c.896 0 1.622.723 1.622 1.617v3.766c0 .893-.726 1.617-1.622 1.617M15.807 43H11.98c-.912 0-1.654-.74-1.654-1.654v-3.853c0-.915.742-1.655 1.654-1.655h3.828c.913 0 1.654.74 1.654 1.655v3.853c0 .914-.74 1.654-1.654 1.654M40.65 32.94H21.949c-1.052 0-1.904-.848-1.904-1.893v-3.376c0-1.045.852-1.892 1.904-1.892h18.703c1.052 0 1.904.847 1.904 1.892v3.376c0 1.045-.852 1.893-1.904 1.893M40.65 43H21.949c-1.052 0-1.904-.848-1.904-1.892v-3.376c0-1.046.852-1.894 1.904-1.894h18.703c1.052 0 1.904.848 1.904 1.894v3.376c0 1.044-.852 1.892-1.904 1.892M1.954 11.887c.028 1.299-1.923 1.56-1.952.254-.04-1.891.53-3.843 1.557-5.394 2.366-3.58 6.738-4.072 10.618-3.593 1.263.156.992 2.17-.266 2.014-3.265-.403-7.101-.117-8.955 3.093-.455.788-.745 1.685-.891 2.589-.048.298-.105 1.264-.11 1.037z"/>
                        <path d="M14.605 3.753L9.623.196C8.959-.278 8 .163 8 .943v7.115c0 .78.959 1.22 1.623.746l4.982-3.557c.527-.377.527-1.117 0-1.494"/>
                    </g>
                </g>
                <g transform="translate(-1678 -275) translate(1678 275) translate(10 35)"/>
                <g transform="translate(-1678 -275) translate(1678 275) translate(20 25)"/>
                <g transform="translate(-1678 -275) translate(1678 275) translate(20 35)"/>
            </g>
            <path stroke="#C04B4B" d="M1334.5 122.5H2308.5V405.5H1334.5z" transform="translate(-1678 -275)"/>
        </g>
    </g>
</svg>
