<svg xmlns="http://www.w3.org/2000/svg" width="20" height="20" viewBox="0 0 20 20">
    <g fill="none" fill-rule="evenodd">
        <g fill="white" fill-rule="nonzero">
            <g>
                <path d="M12.619 3L1.376 14.243c-.057.057-.097.129-.117.206L.013 19.45c-.037.15.007.311.117.42.083.084.196.13.312.13.036 0 .072-.004.107-.013l5.002-1.247c.078-.019.149-.06.205-.116L17 7.38 12.619 3zM19.408 1.723L18.263.575c-.765-.767-2.097-.766-2.861 0L14 1.981 18.006 6l1.402-1.406C19.79 4.21 20 3.7 20 3.159c0-.543-.21-1.053-.592-1.436z" transform="translate(-2513 -1311) translate(2513 1311)"/>
            </g>
        </g>
    </g>
</svg>
