<svg xmlns="http://www.w3.org/2000/svg" xmlns:xlink="http://www.w3.org/1999/xlink" width="27" height="27" viewBox="0 0 27 27">
    <defs>
        <path id="kcm2s9hxca" d="M0 0.111L36.272 0.111 36.272 37 0 37z"/>
    </defs>
    <g fill="none" fill-rule="evenodd">
        <g>
            <g>
                <g transform="translate(-541 -263) translate(541 253)">
                    <mask id="u5ng67ugfb" fill="#fff">
                        <use xlink:href="#kcm2s9hxca"/>
                    </mask>
                    <path fill="#F7EFD4" d="M11.035 11.143c-5.76 0-10.446 4.686-10.446 10.445v4.377c0 5.76 4.686 10.445 10.446 10.445h3.934c5.76 0 10.446-4.685 10.446-10.445v-4.377c0-5.76-4.687-10.445-10.446-10.445h-3.934zM14.969 37h-3.934C4.95 37 0 32.05 0 25.965v-4.377c0-6.085 4.95-11.035 11.035-11.035h3.934c6.085 0 11.035 4.95 11.035 11.035v4.377C26.004 32.05 21.054 37 14.969 37z" mask="url(#u5ng67ugfb)"/>
                </g>
                <path fill="#F7EFD4" d="M13.592 10.571h1.22c6.416 0 11.617 5.213 11.617 11.642v3.145c0 6.43-5.201 11.642-11.617 11.642h-1.033" transform="translate(-541 -263) translate(541 253)"/>
                <path fill="#F0DA80" d="M10.29 21.143c-.155 0-.281-.115-.281-.257 0-1.24-1.103-2.25-2.458-2.25-1.355 0-2.458 1.01-2.458 2.25 0 .142-.126.257-.281.257-.155 0-.281-.115-.281-.257 0-1.524 1.355-2.764 3.02-2.764s3.02 1.24 3.02 2.764c0 .142-.126.257-.281.257" transform="translate(-541 -263) translate(541 253)"/>
                <path fill="#4D89A5" d="M18.878 22.143c-1.666 0-3.02-1.24-3.02-2.764 0-.141.126-.257.28-.257.156 0 .282.116.282.257 0 1.24 1.102 2.25 2.458 2.25 1.355 0 2.458-1.01 2.458-2.25 0-.141.126-.257.281-.257.155 0 .281.116.281.257 0 1.525-1.355 2.764-3.02 2.764M17.116 30.96c-.14 0-.252-.116-.252-.258 0-1.24-1.694-2.249-3.776-2.249-.139 0-.251-.115-.251-.257 0-.142.112-.257.251-.257 2.4 0 4.28 1.213 4.28 2.763 0 .142-.113.257-.252.257" transform="translate(-541 -263) translate(541 253)"/>
                <path fill="#F7EFD4" d="M13.227 28.694c-2.76 0-4.92-1.189-4.92-2.705 0-.175.163-.316.364-.316.201 0 .365.141.365.316 0 1.125 1.919 2.075 4.19 2.075.202 0 .366.141.366.315 0 .174-.164.315-.365.315" transform="translate(-541 -263) translate(541 253)"/>
            </g>
            <path stroke="#C04B4B" d="M288.5 124.5H1133.5V763.5H288.5z" transform="translate(-541 -263)"/>
        </g>
    </g>
</svg>
