<svg xmlns="http://www.w3.org/2000/svg" width="14" height="22" viewBox="0 0 14 22">
    <!-- fill="none"  -->
    <g fill-rule="evenodd">
        <!-- fill="#D1D5D9" -->
        <g >
            <path d="M2571 1308c-3.86 0-7 3.264-7 7.277 0 1.616.993 4.25 3.035 8.055 1.444 2.69 2.865 4.934 2.924 5.028L2571 1330l1.04-1.64c.06-.094 1.481-2.337 2.925-5.028 2.042-3.804 3.035-6.439 3.035-8.055 0-4.013-3.14-7.277-7-7.277zm0 11c-2.004 0-3.628-1.689-3.628-3.772 0-2.083 1.624-3.772 3.628-3.772s3.629 1.689 3.629 3.772c0 2.083-1.625 3.772-3.629 3.772z" transform="translate(-2564 -1308)"/>
        </g>
    </g>
</svg>
