<svg xmlns="http://www.w3.org/2000/svg" xmlns:xlink="http://www.w3.org/1999/xlink" width="12" height="13" viewBox="0 0 12 13">
    <defs>
        <path id="qp72317kca" d="M0 0L12 0 12 13 0 13z"/>
    </defs>
    <g fill="none" fill-rule="evenodd">
        <g>
            <g transform="translate(-3651 -494) translate(3651 494)">
                <mask id="0o91ht6jsb" fill="#fff">
                    <use xlink:href="#qp72317kca"/>
                </mask>
                <path fill="silver" d="M2.132 5.333c0-1.742 1.383-3.155 3.088-3.155 1.706 0 3.089 1.413 3.089 3.155 0 1.742-1.383 3.155-3.089 3.155-1.705 0-3.088-1.413-3.088-3.155m9.582 5.794L9.298 8.658c.713-.912 1.143-2.066 1.143-3.325C10.44 2.387 8.104 0 5.22 0 2.336 0 0 2.387 0 5.333c0 2.945 2.337 5.333 5.22 5.333.856 0 1.661-.215 2.374-.587l2.573 2.629c.381.39 1 .39 1.382 0l.165-.17c.381-.39.381-1.021 0-1.41" mask="url(#0o91ht6jsb)"/>
            </g>
        </g>
    </g>
</svg>
