<svg xmlns="http://www.w3.org/2000/svg" width="33" height="20" viewBox="0 0 33 20">
    <g fill="none" fill-rule="evenodd">
        <g fill="#DBDEE7" fill-rule="nonzero">
            <g>
                <path d="M16.5 5C14.017 5 12 7.017 12 9.5s2.017 4.5 4.5 4.5S21 11.983 21 9.5 18.983 5 16.5 5zm.5 2.185c-.667 0-1.222.37-1.222.815H14c.037-1.111 1.37-2 3-2v1.185z" transform="translate(-589 -315) translate(589 315)"/>
                <path d="M32.615 8.966C30.821 6.862 24.411 0 16.5 0 8.589 0 2.18 6.862.385 8.966c-.513.586-.513 1.448 0 2.068C2.179 13.138 8.589 20 16.5 20c7.911 0 14.32-6.862 16.115-8.966.513-.586.513-1.448 0-2.068zM16.5 17C12.357 17 9 13.867 9 10s3.357-7 7.5-7S24 6.133 24 10s-3.357 7-7.5 7z" transform="translate(-589 -315) translate(589 315)"/>
            </g>
        </g>
    </g>
</svg>
