<svg xmlns="http://www.w3.org/2000/svg" width="27" height="28" viewBox="0 0 27 28">
    <g fill="none" fill-rule="evenodd">
        <g>
            <g>
                <path fill="#D1D5D9" d="M0 28V3.406C0 1.524 1.578 0 3.525 0h10.95C16.421 0 18 1.524 18 3.406l-.02 24.526L0 28z" transform="translate(-660 -264) translate(660 264)"/>
                <path fill="#4D89A5" d="M6.837 9H5.163C4.521 9 4 8.48 4 7.837V6.163C4 5.521 4.52 5 5.163 5h1.674C7.478 5 8 5.521 8 6.163v1.674C8 8.479 7.478 9 6.837 9M12.837 9h-1.674C10.521 9 10 8.48 10 7.837V6.163C10 5.521 10.52 5 11.163 5h1.674C13.478 5 14 5.521 14 6.163v1.674C14 8.479 13.478 9 12.837 9M6.837 16H5.163C4.521 16 4 15.479 4 14.837v-1.674C4 12.521 4.52 12 5.163 12h1.674C7.478 12 8 12.52 8 13.163v1.674C8 15.479 7.478 16 6.837 16M12.837 16h-1.674C10.521 16 10 15.479 10 14.837v-1.674c0-.642.52-1.163 1.163-1.163h1.674c.641 0 1.163.52 1.163 1.163v1.674c0 .642-.522 1.163-1.163 1.163M6.837 23H5.163C4.521 23 4 22.479 4 21.837v-1.674C4 19.521 4.52 19 5.163 19h1.674C7.478 19 8 19.52 8 20.163v1.674C8 22.479 7.478 23 6.837 23M12.837 23h-1.674C10.521 23 10 22.479 10 21.837v-1.674c0-.642.52-1.163 1.163-1.163h1.674c.641 0 1.163.52 1.163 1.163v1.674c0 .642-.522 1.163-1.163 1.163" transform="translate(-660 -264) translate(660 264)"/>
                <g>
                    <path d="M4.792 0.383L9.474 0.383 9.474 7.057 4.792 7.057z" transform="translate(-660 -264) translate(660 264) translate(21 18)"/>
                    <path fill="#D1D5D9" d="M3.407 8.1C1.975 8.1.814 7.082.814 5.827V3.172C.814 1.918 1.974.9 3.407.9 4.839.9 6 1.918 6 3.172v2.655C6 7.082 4.84 8.1 3.407 8.1" transform="translate(-660 -264) translate(660 264) translate(21 18)"/>
                </g>
                <path fill="#D1D5D9" d="M24.369 28c-.203 0-.369-.096-.369-.216v-2.569c0-.119.166-.215.369-.215.203 0 .369.096.369.215v2.57c0 .119-.166.215-.369.215" transform="translate(-660 -264) translate(660 264)"/>
            </g>
            <path stroke="#C04B4B" d="M288.5 124.5H1133.5V763.5H288.5z" transform="translate(-660 -264)"/>
        </g>
    </g>
</svg>
