<svg xmlns="http://www.w3.org/2000/svg" xmlns:xlink="http://www.w3.org/1999/xlink" width="19" height="19" viewBox="5 2 19 19">
    <defs>
        <filter id="68dfcpemka" width="173.7%" height="173.7%" x="-36.8%" y="-26.3%" filterUnits="objectBoundingBox">
            <feOffset dy="2" in="SourceAlpha" result="shadowOffsetOuter1"/>
            <feGaussianBlur in="shadowOffsetOuter1" result="shadowBlurOuter1" stdDeviation="2"/>
            <feColorMatrix in="shadowBlurOuter1" values="0 0 0 0 0.942442602 0 0 0 0 0.942442602 0 0 0 0 0.942442602 0 0 0 1 0"/>
        </filter>
        <path id="tl5tnxnf5b" d="M18.321 0h-7.464c-.18 0-.352.072-.48.199L.2 10.377c-.265.265-.265.695 0 .96L7.663 18.8c.265.265.695.265.96 0L18.8 8.623c.128-.127.2-.3.199-.48V.679C19 .304 18.696 0 18.321 0zM14.25 6.107c-.75 0-1.357-.608-1.357-1.357 0-.75.608-1.357 1.357-1.357.75 0 1.357.607 1.357 1.357S15 6.107 14.25 6.107z"/>
    </defs>
    <g fill-rule="evenodd">
        <g fill-rule="nonzero">
            <g>
                <g transform="translate(-2454 -1310) translate(2458 1312)">
                    <use filter="url(#68dfcpemka)" xlink:href="#tl5tnxnf5b"/>
                    <use xlink:href="#tl5tnxnf5b"/>
                </g>
            </g>
        </g>
    </g>
</svg>
