<svg xmlns="http://www.w3.org/2000/svg" width="14" height="14" viewBox="0 0 14 14">
    <g fill-rule="evenodd">
        <g>
            <path d="M1881.75 482.222c.541-.642.775-1.45.873-2.106.093-.633-.335-1.206-.878-1.206h-5.309c-.53 0-.95.545-.884 1.166.145 1.314.808 3.265 3.486 3.265.344 0 .656-.032.939-.091v.442c0 .296.17.535.38.535h.125c.21 0 .381-.24.381-.535v-.378 1.186c0 .339.199.614.443.614.245 0 .443-.275.443-.614v-2.278zM1886 479c0 3.866-3.134 7-7 7s-7-3.134-7-7 3.134-7 7-7 7 3.134 7 7zm-11.341-2.229c0 .203.166.366.372.366h1.03c.204 0 .37-.163.37-.366v-.155c0-.202-.166-.365-.37-.365h-1.03c-.206 0-.372.163-.372.365v.155zm7.09 0c0 .203.167.366.372.366h1.03c.204 0 .37-.163.37-.366v-.155c0-.202-.166-.365-.37-.365h-1.03c-.205 0-.372.163-.372.365v.155z" transform="translate(-1872 -472)"/>
        </g>
    </g>
</svg>
