<svg xmlns="http://www.w3.org/2000/svg" xmlns:xlink="http://www.w3.org/1999/xlink" width="41" height="51" viewBox="0 0 41 51">
    <defs>
        <path id="fpg5l1k3ka" d="M0 0.411L40.364 0.411 40.364 51 0 51z"/>
    </defs>
    <g fill="none" fill-rule="evenodd">
        <g>
            <g>
                <g transform="translate(-107 -340) translate(107 340)">
                    <mask id="ndokbup8yb" fill="#fff">
                        <use xlink:href="#fpg5l1k3ka"/>
                    </mask>
                    <path fill="#6A80A3" d="M40.365 20.347c0-11.01-9.036-19.936-20.183-19.936S0 9.336 0 20.347c0 6.629 3.277 12.498 8.316 16.123 3.527 3.069 7.556 5.847 9.667 9.729.432.794.8 1.613 1.103 2.448.26.72.369 1.68 1.016 2.252.118.104.233.135.338.059.073.003.15-.034.229-.103.648-.572.756-1.532 1.017-2.252.302-.834.67-1.653 1.103-2.448 3.296-6.063 11.282-9.43 14.706-15.428.189-.331.355-.676.51-1.025 1.504-2.79 2.36-5.973 2.36-9.355" mask="url(#ndokbup8yb)"/>
                </g>
                <path fill="#FEFEFE" d="M29 18.597c0 2.553-.93 4.756-2.788 6.616C24.354 27.07 22.125 28 19.532 28c-2.635 0-4.884-.93-6.744-2.787C10.931 23.396 10 21.17 10 18.534c0-2.638.931-4.887 2.788-6.744C14.605 9.93 16.832 9 19.468 9s4.886.93 6.744 2.79C28.07 13.647 29 15.916 29 18.597" transform="translate(-107 -340) translate(107 340)"/>
                <path fill="#6A80A3" d="M23 17.556c0 1.478-.537 2.753-1.614 3.83C20.31 22.462 19.02 23 17.52 23c-1.525 0-2.827-.538-3.904-1.614C12.54 20.334 12 19.046 12 17.52c0-1.528.54-2.83 1.615-3.905C14.667 12.538 15.955 12 17.482 12c1.526 0 2.828.538 3.904 1.615C22.463 14.69 23 16.005 23 17.556" transform="translate(-107 -340) translate(107 340)"/>
            </g>
        </g>
    </g>
</svg>
